<svg width="1600" height="1000" viewBox="0 0 1600 1000" fill="none" xmlns="http://www.w3.org/2000/svg">
<rect width="1600" height="1000" fill="#0A1420"/>
<rect x="0" y="780" width="1600" height="220" fill="#101B26"/>
<rect x="160" y="460" width="1240" height="180" rx="20" fill="#172636"/>
<rect x="240" y="320" width="400" height="150" rx="22" fill="#213446"/>
<rect x="700" y="240" width="240" height="240" rx="26" fill="#F0A23A" fill-opacity="0.9"/>
<rect x="980" y="330" width="300" height="110" rx="18" fill="#263A4D"/>
<rect x="980" y="470" width="220" height="70" rx="18" fill="#263A4D"/>
<circle cx="420" cy="780" r="82" fill="#070D13"/>
<circle cx="1100" cy="780" r="82" fill="#070D13"/>
<rect x="70" y="140" width="320" height="22" rx="11" fill="#F0A23A" fill-opacity="0.28"/>
<path d="M0 900C261 846 588 874 845 918C1111 963 1359 958 1600 905V1000H0V900Z" fill="#050A10"/>
</svg>
